# Made in Blockbench 4.6.5
mtllib rifle.mtl

o cube
v 2.8125 0.4299174785275269 -1.4224732503009818e-15
v 2.8125 0.5625000000000046 -0.13258252147247906
v -1.75 0.4299174785275157 1.8665624601510444e-15
v -1.75 0.5624999999999934 -0.13258252147247576
v 2.8125 0.5625000000000046 0.13258252147247626
v 2.8125 0.6950825214724822 -1.394717674685353e-15
v -1.75 0.5624999999999933 0.13258252147247954
v -1.2142857142857144 0.6950825214724723 1.519617764955683e-15
vt 0.1875 1
vt 0 1
vt 0 -1
vt 0.1875 -1
vt 0.1875 -1
vt 0.1875 1
vt 0 1
vt 0 -1
vt 0 0.8125
vt 0.1875 0.8125
vt 0.1875 1
vt 0 1
vt 0.1875 0.8125
vt 0.1875 1
vt 0 1
vt 0 0.8125
vt 0.1875 -1
vt 0.1875 1
vt 0 1
vt 0 -1
vt 0.1875 1
vt 0 1
vt 0 -1
vt 0.1875 -1
vn 1.2168216554799252e-15 -0.7071067811865475 -0.7071067811865477
vn -1.2168216554799252e-15 0.7071067811865475 0.7071067811865477
vn 1 2.51214793389404e-15 -7.850462293418873e-16
vn -1 -2.51214793389404e-15 7.850462293418873e-16
vn 2.2373817536243794e-15 -0.7071067811865476 0.7071067811865475
vn -2.2373817536243794e-15 0.7071067811865476 -0.7071067811865475
usemtl none
f 2/1/1 1/2/1 3/3/1 4/4/1
f 7/5/2 5/6/2 6/7/2 8/8/2
f 5/9/3 1/10/3 2/11/3 6/12/3
f 4/13/4 3/14/4 7/15/4 8/16/4
f 3/17/5 1/18/5 5/19/5 7/20/5
f 6/21/6 2/22/6 4/23/6 8/24/6
o cube
v -0.625 0.5 0.125
v -0.625 0.5 -0.125
v -0.75 0.125 0.25
v -0.75 0.125 -0.25
v -1.75 0.5 0.1875
v -1.75 0.5 -0.1875
v -1.6875 0.25 0.25
v -1.6875 0.25 -0.25
vt 1 1
vt 0 1
vt 0 0.5
vt 1 0.5
vt 1 0.5
vt 1 1
vt 0 1
vt 0 0.5
vt 0 0
vt 1 0
vt 1 1
vt 0 1
vt 1 0
vt 1 1
vt 0 1
vt 0 0
vt 1 0.5
vt 1 1
vt 0 1
vt 0 0.5
vt 1 1
vt 0 1
vt 0 0.5
vt 1 0.5
vn 0.948683298050514 -0.316227766016838 0
vn -0.970142500145332 -0.242535625036333 0
vn 0 1 0
vn -0.13216372009101796 -0.9912279006826347 0
vn 0.05291737815703186 0.2998651428898472 0.9525128068265735
vn 0.05291737815703186 0.2998651428898472 -0.9525128068265735
usemtl none
f 10/25/7 9/26/7 11/27/7 12/28/7
f 15/29/8 13/30/8 14/31/8 16/32/8
f 13/33/9 9/34/9 10/35/9 14/36/9
f 12/37/10 11/38/10 15/39/10 16/40/10
f 11/41/11 9/42/11 13/43/11 15/44/11
f 14/45/12 10/46/12 12/47/12 16/48/12
o cube
v -1.6875 0.2651650429449553 0.26516504294495535
v -1.6875 0.5303300858899107 5.551115123125783e-17
v -1.4375 0.17677669529663687 1.3877787807814457e-17
v -1.6875 0.26516504294495535 -0.2651650429449553
v -2.1875 0.30935921676911454 0.13258252147247768
v -2.5 0.618718433538229 5.551115123125783e-17
v -2.125 0 0
v -2.1875 0.30935921676911454 -0.13258252147247762
vt 0.5 1
vt 0 1
vt 0 0.5
vt 0.5 0.5
vt 0.5 0.5
vt 0.5 1
vt 0 1
vt 0 0.5
vt 0 0.5
vt 0.5 0.5
vt 0.5 1
vt 0 1
vt 0.5 0.5
vt 0.5 1
vt 0 1
vt 0 0.5
vt 0.5 0.5
vt 0.5 1
vt 0 1
vt 0 0.5
vt 0.5 1
vt 0 1
vt 0 0.5
vt 0.5 0.5
vn 0.7071067811865476 0.5 0.5000000000000001
vn -0.6657447561956535 -0.4035022556959984 0.6276701755271085
vn -0.12403473458920847 0.7016464154456233 0.7016464154456235
vn 0.21749983007832419 -0.8458758261541766 -0.48701941505846535
vn -0.13736056394868904 -0.9712858623572642 0.1942571724714528
vn 0.07669649888473705 0.7050239879106326 -0.7050239879106325
usemtl none
f 18/49/13 17/50/13 19/51/13 20/52/13
f 23/53/14 21/54/14 22/55/14 24/56/14
f 21/57/15 17/58/15 18/59/15 22/60/15
f 20/61/16 19/62/16 23/63/16 24/64/16
f 19/65/17 17/66/17 21/67/17 23/68/17
f 22/69/18 18/70/18 20/71/18 24/72/18