# Made in Blockbench 4.7.2
mtllib testzone.mtl

o cube
v 62.5 0 62.5
v 62.5 0 -62.5
v 62.5 -0.0625 62.5
v 62.5 -0.0625 -62.5
v -62.5 0 -62.5
v -62.5 0 62.5
v -62.5 -0.0625 -62.5
v -62.5 -0.0625 62.5
vt 0 1
vt 0.0625 1
vt 0.0625 1
vt 0 1
vt 0 1
vt 0.0625 1
vt 0.0625 1
vt 0 1
vt 0 1
vt 0.0625 1
vt 0.0625 0.9375
vt 0 0.9375
vt 0 1
vt 0.0625 1
vt 0.0625 0.9375
vt 0 0.9375
vt 0 1
vt 0.125 1
vt 0.125 0.875
vt 0 0.875
vt 0 1
vt 0.125 1
vt 0.125 0.875
vt 0 0.875
vn 0 0 -1
vn 1 0 0
vn 0 0 1
vn -1 0 0
vn 0 1 0
vn 0 -1 0
usemtl none
f 4/4/1 7/3/1 5/2/1 2/1/1
f 3/8/2 4/7/2 2/6/2 1/5/2
f 8/12/3 3/11/3 1/10/3 6/9/3
f 7/16/4 8/15/4 6/14/4 5/13/4
f 6/20/5 1/19/5 2/18/5 5/17/5
f 7/24/6 4/23/6 3/22/6 8/21/6
o cube
v 5.681568703856344 -3.6459335306586804 0.5
v 5.681568703856344 -3.6459335306586804 -0.5
v 5.650318703856344 -3.700060118395208 0.5
v 5.650318703856344 -3.700060118395208 -0.5
v -7.741825054802454 4.104066469341317 0.5
v -7.741825054802454 4.104066469341317 -0.5
v -7.773075054802454 4.04993988160479 0.5
v -7.773075054802454 4.04993988160479 -0.5
vt 0.0625 1
vt 0 1
vt 0 0.9375
vt 0.0625 0.9375
vt 0.0625 0.9375
vt 0.0625 1
vt 0 1
vt 0 0.9375
vt 0 0.9375
vt 0.0625 0.9375
vt 0.0625 1
vt 0 1
vt 0.0625 0.9375
vt 0.0625 1
vt 0 1
vt 0 0.9375
vt 0.0625 0.9375
vt 0.0625 1
vt 0 1
vt 0 0.9375
vt 0.0625 1
vt 0 1
vt 0 0.9375
vt 0.0625 0.9375
vn 0.8660254037844387 -0.49999999999999994 0
vn -0.8660254037844387 0.49999999999999994 0
vn 0.49999999999999994 0.8660254037844387 0
vn -0.49999999999999994 -0.8660254037844387 0
vn 0 0 1
vn 0 0 -1
usemtl none
f 10/25/7 9/26/7 11/27/7 12/28/7
f 15/29/8 13/30/8 14/31/8 16/32/8
f 13/33/9 9/34/9 10/35/9 14/36/9
f 12/37/10 11/38/10 15/39/10 16/40/10
f 11/41/11 9/42/11 13/43/11 15/44/11
f 14/45/12 10/46/12 12/47/12 16/48/12
o cube
v 8.298899447309209 -1.9133439502457819 1.5
v 8.298899447309209 -1.9133439502457819 0.5
v 8.2859049666331 -1.9744781752916447 1.5
v 8.2859049666331 -1.9744781752916447 0.5
v -10.53044186681655 2.0889560979960846 1.5
v -10.53044186681655 2.0889560979960846 0.5
v -10.54343634749266 2.0278218729502218 1.5
v -10.54343634749266 2.0278218729502218 0.5
vt 0.0625 1
vt 0 1
vt 0 0.9375
vt 0.0625 0.9375
vt 0.0625 0.9375
vt 0.0625 1
vt 0 1
vt 0 0.9375
vt 0 0.9375
vt 0.0625 0.9375
vt 0.0625 1
vt 0 1
vt 0.0625 0.9375
vt 0.0625 1
vt 0 1
vt 0 0.9375
vt 0.0625 0.9375
vt 0.0625 1
vt 0 1
vt 0 0.9375
vt 0.0625 1
vt 0 1
vt 0 0.9375
vt 0.0625 0.9375
vn 0.9781476007338057 -0.2079116908177593 0
vn -0.9781476007338057 0.2079116908177593 0
vn 0.2079116908177593 0.9781476007338057 0
vn -0.2079116908177593 -0.9781476007338057 0
vn 0 0 1
vn 0 0 -1
usemtl none
f 18/49/13 17/50/13 19/51/13 20/52/13
f 23/53/14 21/54/14 22/55/14 24/56/14
f 21/57/15 17/58/15 18/59/15 22/60/15
f 20/61/16 19/62/16 23/63/16 24/64/16
f 19/65/17 17/66/17 21/67/17 23/68/17
f 22/69/18 18/70/18 20/71/18 24/72/18
o cube
v 3.6182911646246376 -4.189293600207206 -0.5
v 3.6182911646246376 -4.189293600207206 -1.5
v 3.574096990800479 -4.233487774031365 -0.5
v 3.574096990800479 -4.233487774031365 -1.5
v -5.397320295503842 4.826317859921276 -0.5
v -5.397320295503842 4.826317859921276 -1.5
v -5.441514469328001 4.782123686097117 -0.5
v -5.441514469328001 4.782123686097117 -1.5
vt 0.0625 1
vt 0 1
vt 0 0.9375
vt 0.0625 0.9375
vt 0.0625 0.9375
vt 0.0625 1
vt 0 1
vt 0 0.9375
vt 0 0.9375
vt 0.0625 0.9375
vt 0.0625 1
vt 0 1
vt 0.0625 0.9375
vt 0.0625 1
vt 0 1
vt 0 0.9375
vt 0.0625 0.9375
vt 0.0625 1
vt 0 1
vt 0 0.9375
vt 0.0625 1
vt 0 1
vt 0 0.9375
vt 0.0625 0.9375
vn 0.7071067811865475 -0.7071067811865476 0
vn -0.7071067811865475 0.7071067811865476 0
vn 0.7071067811865476 0.7071067811865475 0
vn -0.7071067811865476 -0.7071067811865475 0
vn 0 0 1
vn 0 0 -1
usemtl none
f 26/73/19 25/74/19 27/75/19 28/76/19
f 31/77/20 29/78/20 30/79/20 32/80/20
f 29/81/21 25/82/21 26/83/21 30/84/21
f 28/85/22 27/86/22 31/87/22 32/88/22
f 27/89/23 25/90/23 29/91/23 31/92/23
f 30/93/24 26/94/24 28/95/24 32/96/24
o cube
v 2.4935696448143743 -5.457290124598851 -1.5
v 2.4935696448143743 -5.457290124598851 -2.5
v 2.4394430570778467 -5.488540124598851 -1.5
v 2.4394430570778467 -5.488540124598851 -2.5
v -4.1939303551856275 6.125799651018015 -1.5
v -4.1939303551856275 6.125799651018015 -2.5
v -4.248056942922155 6.094549651018015 -1.5
v -4.248056942922155 6.094549651018015 -2.5
vt 0.0625 1
vt 0 1
vt 0 0.9375
vt 0.0625 0.9375
vt 0.0625 0.9375
vt 0.0625 1
vt 0 1
vt 0 0.9375
vt 0 0.9375
vt 0.0625 0.9375
vt 0.0625 1
vt 0 1
vt 0.0625 0.9375
vt 0.0625 1
vt 0 1
vt 0 0.9375
vt 0.0625 0.9375
vt 0.0625 1
vt 0 1
vt 0 0.9375
vt 0.0625 1
vt 0 1
vt 0 0.9375
vt 0.0625 0.9375
vn 0.5000000000000001 -0.8660254037844386 0
vn -0.5000000000000001 0.8660254037844386 0
vn 0.8660254037844386 0.5000000000000001 0
vn -0.8660254037844386 -0.5000000000000001 0
vn 0 0 1
vn 0 0 -1
usemtl none
f 34/97/25 33/98/25 35/99/25 36/100/25
f 39/101/26 37/102/26 38/103/26 40/104/26
f 37/105/27 33/106/27 34/107/27 38/108/27
f 36/109/28 35/110/28 39/111/28 40/112/28
f 35/113/29 33/114/29 37/115/29 39/116/29
f 38/117/30 34/118/30 36/119/30 40/120/30
o cube
v 1.7011820707914276 -6.567866757789252 -2.5
v 1.7011820707914276 -6.567866757789252 -3.5
v 1.642451281992308 -6.5892430167471066 -2.5
v 1.642451281992308 -6.5892430167471066 -3.5
v -3.3008625253464796 7.175137821204657 -2.5
v -3.3008625253464796 7.175137821204657 -3.5
v -3.3595933141455987 7.153761562246802 -2.5
v -3.3595933141455987 7.153761562246802 -3.5
vt 0.0625 1
vt 0 1
vt 0 0.9375
vt 0.0625 0.9375
vt 0.0625 0.9375
vt 0.0625 1
vt 0 1
vt 0 0.9375
vt 0 0.9375
vt 0.0625 0.9375
vt 0.0625 1
vt 0 1
vt 0.0625 0.9375
vt 0.0625 1
vt 0 1
vt 0 0.9375
vt 0.0625 0.9375
vt 0.0625 1
vt 0 1
vt 0 0.9375
vt 0.0625 1
vt 0 1
vt 0 0.9375
vt 0.0625 0.9375
vn 0.3420201433256689 -0.9396926207859083 0
vn -0.3420201433256689 0.9396926207859083 0
vn 0.9396926207859083 0.3420201433256689 0
vn -0.9396926207859083 -0.3420201433256689 0
vn 0 0 1
vn 0 0 -1
usemtl none
f 42/121/31 41/122/31 43/123/31 44/124/31
f 47/125/32 45/126/32 46/127/32 48/128/32
f 45/129/33 41/130/33 42/131/33 46/132/33
f 44/133/34 43/134/34 47/135/34 48/136/34
f 43/137/35 41/138/35 45/139/35 47/140/35
f 46/141/36 42/142/36 44/143/36 48/144/36
o cube
v -0.7187499999999984 -6.96875 -3.5625
v -0.7187499999999984 -6.96875 -4.5625
v -0.7812499999999984 -6.96875 -3.5625
v -0.7812499999999984 -6.96875 -4.5625
v -0.7187500000000017 7.40625 -3.5625
v -0.7187500000000017 7.40625 -4.5625
v -0.7812500000000017 7.40625 -3.5625
v -0.7812500000000017 7.40625 -4.5625
vt 0.0625 1
vt 0 1
vt 0 0.9375
vt 0.0625 0.9375
vt 0.0625 0.9375
vt 0.0625 1
vt 0 1
vt 0 0.9375
vt 0 0.9375
vt 0.0625 0.9375
vt 0.0625 1
vt 0 1
vt 0.0625 0.9375
vt 0.0625 1
vt 0 1
vt 0 0.9375
vt 0.0625 0.9375
vt 0.0625 1
vt 0 1
vt 0 0.9375
vt 0.0625 1
vt 0 1
vt 0 0.9375
vt 0.0625 0.9375
vn 2.220446049250313e-16 -1 0
vn -2.220446049250313e-16 1 0
vn 1 2.220446049250313e-16 0
vn -1 -2.220446049250313e-16 0
vn 0 0 1
vn 0 0 -1
usemtl none
f 50/145/37 49/146/37 51/147/37 52/148/37
f 55/149/38 53/150/38 54/151/38 56/152/38
f 53/153/39 49/154/39 50/155/39 54/156/39
f 52/157/40 51/158/40 55/159/40 56/160/40
f 51/161/41 49/162/41 53/163/41 55/164/41
f 54/165/42 50/166/42 52/167/42 56/168/42